<?xml version="1.0" encoding="UTF-8" standalone="no" ?>
<!DOCTYPE svg PUBLIC "-//W3C//DTD SVG 1.1//EN" "http://www.w3.org/Graphics/SVG/1.1/DTD/svg11.dtd">
<svg xmlns="http://www.w3.org/2000/svg" xmlns:xlink="http://www.w3.org/1999/xlink" version="1.1" width="120" height="120" viewBox="0 0 120 120" xml:space="preserve">
<desc>Created with Fabric.js 3.6.6</desc>
<defs>
</defs>
<g transform="matrix(1.12 0 0 1.12 60.48 59.48)"  >
<polygon style="stroke: rgb(39,87,235); stroke-width: 8; stroke-dasharray: none; stroke-linecap: butt; stroke-dashoffset: 0; stroke-linejoin: miter; stroke-miterlimit: 4; fill: rgb(39,87,235); fill-rule: nonzero; opacity: 1;"  points="-50,-50 50,50 -50,50 " />
</g>
<g transform="matrix(1.24 1.21 -1.21 1.24 162.18 73.05)"  >
<path style="stroke: rgb(39,87,235); stroke-width: 8; stroke-dasharray: none; stroke-linecap: butt; stroke-dashoffset: 0; stroke-linejoin: miter; stroke-miterlimit: 4; fill: rgb(39,87,235); fill-rule: nonzero; opacity: 1;"  transform=" translate(-57.95, -28.98)" d="m 0 57.952755 l 0 0 c 0 -32.006424 25.946333 -57.952755 57.952755 -57.952755 c 32.006428 0 57.952755 25.946333 57.952755 57.952755 l -28.97638 0 c 0 -16.003212 -12.97316 -28.976377 -28.976376 -28.976377 c -16.003212 0 -28.976377 12.9731655 -28.976377 28.976377 z" stroke-linecap="round" />
</g>
<g transform="matrix(0.76 -0.65 0.65 0.76 64.86 66.93)" style=""  >
		<text xml:space="preserve" font-family="'Open Sans', sans-serif" font-size="45" font-style="normal" font-weight="normal" style="stroke: none; stroke-width: 1; stroke-dasharray: none; stroke-linecap: butt; stroke-dashoffset: 0; stroke-linejoin: miter; stroke-miterlimit: 4; fill: rgb(255,255,255); fill-rule: nonzero; opacity: 1; white-space: pre;" ><tspan x="-60.36" y="14.14" style="stroke-width: 1; font-family: 'Open Sans', sans-serif; font-style: normal; font-weight: normal; ">CDDP</tspan></text>
</g>
</svg>